<?xml version="1.0" encoding="utf-8"?>
<!-- Generator: Adobe Illustrator 26.1.0, SVG Export Plug-In . SVG Version: 6.00 Build 0)  -->
<svg version="1.1" id="Layer_1" xmlns="http://www.w3.org/2000/svg" xmlns:xlink="http://www.w3.org/1999/xlink" x="0px" y="0px"
	 viewBox="0 0 290.61 90.29" style="enable-background:new 0 0 290.61 90.29;" xml:space="preserve">
<style type="text/css">
	.st0{fill:#A5A870;}
	.st1{fill:#545B66;}
	.st2{fill:#FFFFFF;}
</style>
<rect x="7.76" y="8.93" class="st0" width="84" height="74.07"/>
<path class="st1" d="M94.76,85.96h-90v-80h90V85.96z M5.76,85h88V6.93h-88V85z"/>
<g>
	<path class="st2" d="M104.61,57.68v-3.57l4.62-0.79v-32.5l-4.62-0.79v-3.6h40.46v3.6l-4.62,0.79v32.5l4.62,0.79v3.57h-14.82v-3.57
		l4.62-0.79v-32.5h-20.06v32.5l4.62,0.79v3.57H104.61z"/>
	<path class="st2" d="M147.05,57.68v-3.57l4.62-0.79v-32.5l-4.62-0.79v-3.6h4.62h14.34c2.95,0,5.46,0.51,7.54,1.54
		c2.08,1.03,3.67,2.47,4.76,4.32c1.09,1.85,1.64,4.01,1.64,6.49c0,2.49-0.55,4.67-1.64,6.52c-1.1,1.85-2.68,3.29-4.76,4.31
		c-2.08,1.02-4.59,1.53-7.54,1.53h-8.75v12.18l4.62,0.79v3.57H147.05z M157.25,36.77h8.75c2.79,0,4.89-0.75,6.28-2.25
		c1.39-1.5,2.08-3.4,2.08-5.68c0-2.29-0.69-4.19-2.08-5.72c-1.39-1.53-3.48-2.29-6.28-2.29h-8.75V36.77z"/>
	<path class="st2" d="M175.05,57.68v-3.57l3.06-0.42l14.42-37.26h4.79l14.17,37.26l3.03,0.42v3.57h-11.84v-3.57l3.12-0.54
		l-2.72-7.59h-16.52l-2.8,7.59l3.12,0.54v3.57H175.05z M188.28,41.31h13.09l-6.06-16.77l-0.34-0.93h-0.17l-0.34,0.93L188.28,41.31z"
		/>
	<path class="st2" d="M216.48,57.68v-3.57l4.62-0.79v-32.5l-4.62-0.79v-3.6h4.62h13.17c4.31,0,7.67,0.93,10.1,2.79
		c2.43,1.86,3.64,4.65,3.64,8.37c0,1.83-0.58,3.47-1.74,4.92c-1.16,1.44-2.7,2.52-4.6,3.22c1.66,0.34,3.09,1.01,4.28,2
		c1.19,0.99,2.11,2.2,2.76,3.63c0.65,1.43,0.98,2.99,0.98,4.69c0,3.78-1.23,6.66-3.68,8.66c-2.46,1.99-5.78,2.99-9.97,2.99H216.48z
		 M226.68,33.97h9.04c2,0,3.62-0.58,4.86-1.74c1.24-1.16,1.86-2.74,1.86-4.75c0-2.23-0.7-3.9-2.1-5c-1.4-1.1-3.42-1.66-6.06-1.66
		h-7.59V33.97z M226.68,53.32h9.35c2.55,0,4.53-0.63,5.94-1.88c1.41-1.26,2.11-3.04,2.11-5.34c0-1.62-0.26-3.01-0.78-4.17
		s-1.31-2.04-2.38-2.66c-1.07-0.62-2.41-0.93-4.04-0.93h-10.2V53.32z"/>
	<path class="st2" d="M269.09,58.28c-2.66,0-5.05-0.51-7.17-1.53c-2.12-1.02-3.92-2.46-5.4-4.32c-1.48-1.86-2.62-4.07-3.4-6.62
		c-0.78-2.55-1.18-5.36-1.18-8.44v-0.6c0-3.06,0.39-5.87,1.18-8.43c0.78-2.56,1.92-4.77,3.4-6.64c1.48-1.87,3.28-3.31,5.4-4.33
		c2.12-1.02,4.5-1.53,7.17-1.53c2.81,0,5.29,0.51,7.42,1.53c2.13,1.02,3.92,2.46,5.37,4.33c1.45,1.87,2.54,4.08,3.27,6.64
		c0.74,2.56,1.11,5.37,1.11,8.43v0.6c0,3.08-0.37,5.89-1.11,8.44c-0.74,2.55-1.83,4.76-3.27,6.62c-1.44,1.86-3.23,3.3-5.37,4.32
		C274.38,57.77,271.91,58.28,269.09,58.28z M269.09,53.63c2.74,0,4.95-0.68,6.64-2.04c1.69-1.36,2.93-3.26,3.73-5.71
		c0.79-2.45,1.19-5.28,1.19-8.51v-0.65c0-3.21-0.4-6.03-1.2-8.46s-2.05-4.33-3.75-5.7c-1.7-1.37-3.9-2.05-6.6-2.05
		c-2.47,0-4.57,0.69-6.29,2.07s-3.02,3.28-3.91,5.71s-1.33,5.24-1.33,8.43v0.65c0,3.21,0.44,6.04,1.33,8.49s2.19,4.35,3.91,5.72
		C264.52,52.95,266.62,53.63,269.09,53.63z"/>
</g>
<g>
	<path class="st2" d="M105.34,67.61v3.79h1.54c0.28-2.38,1.82-3.97,3.97-3.97c2.36,0,3.96,1.84,3.96,4.61
		c0,2.92-1.78,4.77-4.05,4.77c-2.17,0-3.73-1.6-3.92-4.16h-1.5v3.96h-1.6v-8.99H105.34z M113.18,72.06c0-1.67-0.76-3.42-2.36-3.42
		c-1.58,0-2.41,1.69-2.41,3.51c0,1.75,0.8,3.44,2.4,3.44C112.44,75.59,113.18,73.77,113.18,72.06z"/>
	<path class="st2" d="M116.43,70.54c0-1.15-0.04-2.08-0.07-2.93h1.45l0.09,1.54h0.04c0.65-1.1,1.73-1.73,3.19-1.73
		c2.19,0,3.83,1.84,3.83,4.55c0,3.23-1.99,4.83-4.1,4.83c-1.19,0-2.23-0.52-2.77-1.41h-0.04v4.88h-1.62V70.54z M118.04,72.94
		c0,0.24,0.02,0.46,0.08,0.67c0.3,1.13,1.28,1.91,2.45,1.91c1.73,0,2.73-1.41,2.73-3.47c0-1.78-0.95-3.32-2.67-3.32
		c-1.11,0-2.17,0.78-2.47,2.01c-0.06,0.2-0.11,0.45-0.11,0.65V72.94z"/>
	<path class="st2" d="M128.05,67.61v3.79c0,1.41-0.04,2.32-0.11,3.6l0.06,0.02c0.56-1.1,0.85-1.73,1.47-2.77l2.8-4.64h1.91v8.99
		h-1.56v-3.81c0-1.47,0.04-2.23,0.11-3.7h-0.04c-0.59,1.17-0.97,1.89-1.5,2.8c-0.85,1.39-1.86,3.12-2.8,4.7h-1.89v-8.99H128.05z"/>
	<path class="st2" d="M143.35,67.61v7.76l0.93,0.02l-0.09,4.05h-1.28l-0.07-2.84h-6.22l-0.09,2.84h-1.26l-0.07-4.03l0.76-0.04
		c0.39-0.58,0.69-1.19,0.89-1.84c0.35-1.11,0.52-2.32,0.52-3.58v-2.34H143.35z M138.79,70.32c0,1.21-0.15,2.36-0.46,3.36
		c-0.19,0.61-0.43,1.17-0.71,1.67h4.14v-6.5h-2.97V70.32z"/>
	<path class="st2" d="M147.29,67.61v3.79c0,1.41-0.04,2.32-0.11,3.6l0.06,0.02c0.56-1.1,0.85-1.73,1.47-2.77l2.8-4.64h1.91v8.99
		h-1.56v-3.81c0-1.47,0.04-2.23,0.11-3.7h-0.04c-0.59,1.17-0.97,1.89-1.5,2.8c-0.85,1.39-1.86,3.12-2.8,4.7h-1.89v-8.99H147.29z"/>
	<path class="st2" d="M156.91,67.61v3.03c0,1.15,0.43,1.91,1.86,1.91c0.71,0,1.45-0.26,1.93-0.61v-4.33h1.62v9.1h-1.62v-3.62h-0.02
		c-0.61,0.39-1.6,0.67-2.45,0.67c-1.69,0-2.95-0.87-2.95-2.92v-3.23H156.91z"/>
	<path class="st2" d="M165.45,72.4c0.04,2.21,1.43,3.12,3.08,3.12c1.17,0,1.89-0.2,2.49-0.46l0.3,1.17
		c-0.58,0.26-1.58,0.58-3.01,0.58c-2.77,0-4.42-1.84-4.42-4.55c0-2.71,1.6-4.83,4.21-4.83c2.95,0,3.71,2.56,3.71,4.22
		c0,0.33-0.02,0.58-0.06,0.76H165.45z M170.24,71.23c0.02-1.02-0.43-2.64-2.27-2.64c-1.67,0-2.38,1.5-2.51,2.64H170.24z"/>
	<path class="st2" d="M179.81,76.28c-0.43,0.2-1.38,0.52-2.58,0.52c-2.71,0-4.47-1.84-4.47-4.59c0-2.77,1.89-4.79,4.83-4.79
		c0.96,0,1.82,0.24,2.27,0.48l-0.37,1.24c-0.39-0.2-1-0.43-1.89-0.43c-2.06,0-3.18,1.54-3.18,3.4c0,2.08,1.34,3.36,3.12,3.36
		c0.93,0,1.54-0.22,2-0.43L179.81,76.28z"/>
	<path class="st2" d="M182.89,67.61v3.9h0.39l3.36-3.9h1.99l-3.9,4.05c1.45,0.17,2.32,1.13,3.03,2.75c0.24,0.59,0.54,1.47,0.95,2.19
		h-1.71c-0.24-0.39-0.54-1.1-0.84-1.84c-0.61-1.45-1.45-2.12-2.95-2.12h-0.32v3.96h-1.62v-8.99H182.89z"/>
	<path class="st2" d="M196.22,74.44c0,0.78,0.04,1.54,0.13,2.15h-1.47l-0.13-1.13h-0.06c-0.5,0.71-1.47,1.34-2.75,1.34
		c-1.82,0-2.75-1.28-2.75-2.58c0-2.17,1.93-3.36,5.4-3.34v-0.19c0-0.72-0.2-2.08-2.04-2.06c-0.85,0-1.73,0.24-2.36,0.67l-0.37-1.1
		c0.74-0.46,1.84-0.78,2.97-0.78c2.75,0,3.42,1.88,3.42,3.66V74.44z M194.64,72.01c-1.78-0.04-3.81,0.28-3.81,2.02
		c0,1.08,0.71,1.56,1.52,1.56c1.19,0,1.95-0.74,2.21-1.5c0.06-0.19,0.07-0.37,0.07-0.52V72.01z"/>
	<path class="st2" d="M205.1,76.6h-1.62v-3.77h-1.21c-0.69,0-1.15,0.19-1.49,0.52c-0.69,0.54-0.93,1.63-1.28,2.51
		c-0.11,0.28-0.24,0.52-0.37,0.74h-1.75c0.2-0.3,0.39-0.63,0.56-1.02c0.39-0.87,0.61-2.04,1.41-2.71c0.28-0.24,0.61-0.43,1.02-0.52
		v-0.04c-1.17-0.13-2.38-0.85-2.38-2.25c0-0.93,0.5-1.56,1.19-1.95c0.74-0.45,1.84-0.61,3.03-0.61c1.06,0,2.1,0.07,2.88,0.19V76.6z
		 M203.48,68.68c-0.41-0.06-0.78-0.09-1.36-0.09c-1.1,0-2.43,0.32-2.43,1.56c0,1.15,1.43,1.58,2.4,1.58c0.69,0,1.02,0,1.39,0V68.68z
		"/>
	<path class="st2" d="M212.41,67.61v3.9h0.39l3.36-3.9h1.99l-3.9,4.05c1.45,0.17,2.32,1.13,3.03,2.75c0.24,0.59,0.54,1.47,0.95,2.19
		h-1.71c-0.24-0.39-0.54-1.1-0.84-1.84c-0.61-1.45-1.45-2.12-2.95-2.12h-0.32v3.96h-1.62v-8.99H212.41z"/>
	<path class="st2" d="M227.27,72.03c0,3.32-2.32,4.77-4.48,4.77c-2.41,0-4.31-1.78-4.31-4.62c0-2.99,1.99-4.75,4.46-4.75
		C225.52,67.42,227.27,69.3,227.27,72.03z M220.16,72.12c0,1.97,1.11,3.45,2.71,3.45c1.56,0,2.73-1.47,2.73-3.49
		c0-1.52-0.76-3.44-2.69-3.44C220.99,68.65,220.16,70.43,220.16,72.12z"/>
	<path class="st2" d="M229,67.61H231l1.62,4.53c0.24,0.67,0.61,1.76,0.82,2.47h0.04c0.2-0.69,0.71-2.1,1.08-3.08l1.43-3.92H238
		l0.63,8.99h-1.56l-0.2-4.29c-0.04-0.98-0.11-2.12-0.15-3.21h-0.06c-0.24,0.82-0.5,1.52-1,2.92l-1.73,4.53h-1.17l-1.6-4.46
		c-0.3-0.83-0.69-2.14-0.91-2.97h-0.07c-0.04,1.06-0.07,2.25-0.13,3.23l-0.24,4.25h-1.5L229,67.61z"/>
	<path class="st2" d="M247.69,67.61v8.99h-1.63v-7.71h-4.18v7.71h-1.63v-8.99H247.69z"/>
	<path class="st2" d="M256.22,74.44c0,0.78,0.04,1.54,0.13,2.15h-1.47l-0.13-1.13h-0.06c-0.5,0.71-1.47,1.34-2.75,1.34
		c-1.82,0-2.75-1.28-2.75-2.58c0-2.17,1.93-3.36,5.4-3.34v-0.19c0-0.72-0.2-2.08-2.04-2.06c-0.85,0-1.73,0.24-2.36,0.67l-0.37-1.1
		c0.74-0.46,1.84-0.78,2.97-0.78c2.75,0,3.42,1.88,3.42,3.66V74.44z M254.64,72.01c-1.78-0.04-3.81,0.28-3.81,2.02
		c0,1.08,0.71,1.56,1.52,1.56c1.19,0,1.95-0.74,2.21-1.5c0.06-0.19,0.07-0.37,0.07-0.52V72.01z"/>
	<path class="st2" d="M259.99,67.61v3.62h4.25v-3.62h1.63v8.99h-1.63v-4.07h-4.25v4.07h-1.63v-8.99H259.99z"/>
	<path class="st2" d="M269.61,67.61v3.79c0,1.41-0.04,2.32-0.11,3.6l0.06,0.02c0.56-1.1,0.85-1.73,1.47-2.77l2.8-4.64h1.91v8.99
		h-1.56v-3.81c0-1.47,0.04-2.23,0.11-3.7h-0.04c-0.59,1.17-0.97,1.89-1.5,2.8c-0.85,1.39-1.86,3.12-2.8,4.7h-1.89v-8.99H269.61z"/>
	<path class="st2" d="M284.57,76.6h-1.62v-3.77h-1.21c-0.69,0-1.15,0.19-1.49,0.52c-0.69,0.54-0.93,1.63-1.28,2.51
		c-0.11,0.28-0.24,0.52-0.37,0.74h-1.75c0.2-0.3,0.39-0.63,0.56-1.02c0.39-0.87,0.61-2.04,1.41-2.71c0.28-0.24,0.61-0.43,1.02-0.52
		v-0.04c-1.17-0.13-2.38-0.85-2.38-2.25c0-0.93,0.5-1.56,1.19-1.95c0.74-0.45,1.84-0.61,3.03-0.61c1.06,0,2.1,0.07,2.88,0.19V76.6z
		 M282.96,68.68c-0.41-0.06-0.78-0.09-1.36-0.09c-1.1,0-2.43,0.32-2.43,1.56c0,1.15,1.43,1.58,2.4,1.58c0.69,0,1.02,0,1.39,0V68.68z
		"/>
</g>
<path class="st2" d="M59.49,72.37c-4.11,0-7.78-0.99-11-2.98c-3.22-1.99-5.81-4.72-7.77-8.2c-1.96-3.48-3.12-7.48-3.47-11.99h-7.62
	v16.85l5.75,0.99v4.44H16.93v-4.44l5.75-0.99V25.62l-5.75-0.99v-4.48h18.44v4.48l-5.75,0.99v18.16h7.55
	c0.23-4.68,1.32-8.84,3.26-12.48c1.94-3.64,4.55-6.51,7.83-8.6c3.28-2.09,7.02-3.14,11.23-3.14c4.54,0,8.54,1.13,12.02,3.4
	c3.48,2.27,6.19,5.37,8.14,9.31c1.95,3.94,2.93,8.39,2.93,13.35v0.74c0,4.98-0.98,9.44-2.93,13.36c-1.95,3.93-4.67,7.02-8.14,9.27
	C68.03,71.24,64.03,72.37,59.49,72.37z M59.49,66.69c3.41,0,6.32-0.86,8.73-2.57c2.41-1.71,4.25-4.1,5.52-7.16
	c1.27-3.05,1.9-6.59,1.9-10.61v-0.81c0-3.97-0.65-7.49-1.94-10.54c-1.29-3.06-3.14-5.44-5.55-7.16c-2.41-1.71-5.29-2.57-8.66-2.57
	c-3.22,0-5.98,0.86-8.29,2.59c-2.3,1.73-4.07,4.11-5.29,7.16c-1.22,3.05-1.83,6.55-1.83,10.53v0.81c0,4.02,0.61,7.56,1.83,10.61
	c1.22,3.06,2.98,5.44,5.29,7.16C53.51,65.84,56.27,66.69,59.49,66.69z"/>
</svg>
