<svg aria-hidden="true" style="position: absolute; width: 0; height: 0; overflow: hidden;" version="1.1"
     xmlns="http://www.w3.org/2000/svg" xmlns:xlink="http://www.w3.org/1999/xlink">
    <defs>
        <symbol id="icon-hands" viewBox="0 0 32 32">
            <path d="M11.747 8.148c-1.596-0.006-2.894-1.306-2.894-2.904 0-0.818 0.341-1.558 0.887-2.087l-0.672-0.632c-0.122-0.105-0.272-0.156-0.421-0.156-0.166 0-0.332 0.064-0.458 0.19l-8.001 8.014c-0.229 0.229-0.252 0.593-0.055 0.85l2.943 3.361c0.059 0.077 0.099 0.166 0.12 0.261 0.12 0.55 0.325 1.135 0.598 1.742l0.276-0.276c0.483-0.483 1.125-0.749 1.807-0.749s1.324 0.266 1.807 0.749c0.003 0.003 0.006 0.006 0.009 0.009l0.008 0.008c0.333 0.334 0.558 0.745 0.668 1.192 0.382-0.218 0.814-0.337 1.265-0.337 0.681 0 1.322 0.265 1.805 0.746l0.011 0.011c0.001 0.001 0.003 0.003 0.004 0.004 0.483 0.483 0.748 1.124 0.748 1.807 0 0.317-0.060 0.624-0.169 0.911 0.551 0.074 1.062 0.322 1.462 0.723l0.013 0.013c0.355 0.355 0.581 0.79 0.683 1.247l5.802 5.802c0.311 0.311 0.726 0.475 1.141 0.475 0.33 0 0.658-0.104 0.932-0.321 0.732-0.579 0.777-1.657 0.136-2.298l-5.614-5.614c-0.29-0.289-0.29-0.759 0-1.048 0.147-0.147 0.339-0.22 0.532-0.22s0.385 0.073 0.532 0.22l7.14 7.14c0.311 0.311 0.727 0.475 1.141 0.475 0.33 0 0.658-0.104 0.932-0.321 0.732-0.579 0.777-1.657 0.136-2.298l-7.174-7.174c-0.293-0.293-0.293-0.769 0-1.062v0c0.145-0.145 0.335-0.217 0.525-0.217s0.38 0.072 0.525 0.217l5.581 5.581c0.311 0.311 0.727 0.475 1.141 0.475 0.33 0 0.658-0.104 0.932-0.321 0.732-0.579 0.777-1.657 0.136-2.298l-11.825-11.825-5.097-0.065z"></path>
            <path d="M15.728 30.205c0.45 0 0.901-0.195 1.209-0.585 0.49-0.618 0.404-1.516-0.154-2.074l-0.492-0.492c-0.043 0.591-0.287 1.17-0.738 1.621l-0.64 0.64c-0.121 0.121-0.252 0.229-0.392 0.322l0.119 0.119c0.299 0.299 0.694 0.449 1.088 0.449z"></path>
            <path d="M23.811 1.985c-0.126-0.126-0.291-0.19-0.458-0.19-0.15 0-0.3 0.052-0.421 0.156l-0.534 0.305c-0.001 0.001-0.002 0.001-0.003 0.002l-10.637 1.463c-0.838 0-1.524 0.686-1.524 1.524s0.686 1.524 1.524 1.524l5.673 0.072c0 0 8.792 8.796 10.746 10.75 1.536-1.957 2.906-4.004 3.295-5.788 0.021-0.095 0.061-0.184 0.12-0.261l0.275-0.693c0.197-0.257 0.174-0.62-0.055-0.85l-8.001-8.013z"></path>
            <path d="M4.14 20.080c0.23 0.229 0.53 0.344 0.831 0.344s0.602-0.115 0.831-0.344l0.919-0.919c0.459-0.459 0.459-1.203 0-1.662l-0.012-0.012c-0.23-0.23-0.53-0.344-0.831-0.344s-0.602 0.115-0.831 0.344l-0.919 0.919c-0.459 0.459-0.459 1.203 0 1.662l0.012 0.012z"></path>
            <path d="M7.473 23.301c0.301 0 0.602-0.115 0.831-0.344l2.175-2.175c0.459-0.459 0.459-1.203 0-1.662l-0.012-0.012c-0.229-0.23-0.53-0.344-0.831-0.344s-0.602 0.115-0.831 0.344l-2.175 2.175c-0.459 0.459-0.459 1.203 0 1.662l0.012 0.012c0.23 0.23 0.53 0.344 0.831 0.344z"></path>
            <path d="M9.463 25.643c0.229 0.229 0.53 0.344 0.831 0.344s0.602-0.115 0.831-0.344l1.408-1.408c0.459-0.459 0.459-1.203 0-1.662l-0.012-0.012c-0.23-0.229-0.53-0.344-0.831-0.344s-0.601 0.115-0.831 0.344l-1.408 1.408c-0.459 0.459-0.459 1.203 0 1.662l0.012 0.012z"></path>
            <path d="M13.937 28.34l0.64-0.64c0.459-0.459 0.459-1.203 0-1.662l-0.012-0.012c-0.229-0.229-0.53-0.344-0.831-0.344s-0.602 0.115-0.831 0.344l-0.64 0.64c-0.459 0.459-0.459 1.203 0 1.662l0.012 0.012c0.229 0.229 0.53 0.344 0.831 0.344s0.602-0.115 0.831-0.344z"></path>
        </symbol>
    </defs>

</svg>
