<svg aria-hidden="true" style="position: absolute; width: 0; height: 0; overflow: hidden;" version="1.1"
     xmlns="http://www.w3.org/2000/svg" xmlns:xlink="http://www.w3.org/1999/xlink">
    <defs>
        <symbol id="icon-hands" viewBox="0 0 32 32">
            <path d="M11.747 8.148c-1.596-0.006-2.894-1.306-2.894-2.904 0-0.818 0.341-1.558 0.887-2.087l-0.672-0.632c-0.122-0.105-0.272-0.156-0.421-0.156-0.166 0-0.332 0.064-0.458 0.19l-8.001 8.014c-0.229 0.229-0.252 0.593-0.055 0.85l2.943 3.361c0.059 0.077 0.099 0.166 0.12 0.261 0.12 0.55 0.325 1.135 0.598 1.742l0.276-0.276c0.483-0.483 1.125-0.749 1.807-0.749s1.324 0.266 1.807 0.749c0.003 0.003 0.006 0.006 0.009 0.009l0.008 0.008c0.333 0.334 0.558 0.745 0.668 1.192 0.382-0.218 0.814-0.337 1.265-0.337 0.681 0 1.322 0.265 1.805 0.746l0.011 0.011c0.001 0.001 0.003 0.003 0.004 0.004 0.483 0.483 0.748 1.124 0.748 1.807 0 0.317-0.060 0.624-0.169 0.911 0.551 0.074 1.062 0.322 1.462 0.723l0.013 0.013c0.355 0.355 0.581 0.79 0.683 1.247l5.802 5.802c0.311 0.311 0.726 0.475 1.141 0.475 0.33 0 0.658-0.104 0.932-0.321 0.732-0.579 0.777-1.657 0.136-2.298l-5.614-5.614c-0.29-0.289-0.29-0.759 0-1.048 0.147-0.147 0.339-0.22 0.532-0.22s0.385 0.073 0.532 0.22l7.14 7.14c0.311 0.311 0.727 0.475 1.141 0.475 0.33 0 0.658-0.104 0.932-0.321 0.732-0.579 0.777-1.657 0.136-2.298l-7.174-7.174c-0.293-0.293-0.293-0.769 0-1.062v0c0.145-0.145 0.335-0.217 0.525-0.217s0.38 0.072 0.525 0.217l5.581 5.581c0.311 0.311 0.727 0.475 1.141 0.475 0.33 0 0.658-0.104 0.932-0.321 0.732-0.579 0.777-1.657 0.136-2.298l-11.825-11.825-5.097-0.065z"></path>
            <path d="M15.728 30.205c0.45 0 0.901-0.195 1.209-0.585 0.49-0.618 0.404-1.516-0.154-2.074l-0.492-0.492c-0.043 0.591-0.287 1.17-0.738 1.621l-0.64 0.64c-0.121 0.121-0.252 0.229-0.392 0.322l0.119 0.119c0.299 0.299 0.694 0.449 1.088 0.449z"></path>
            <path d="M23.811 1.985c-0.126-0.126-0.291-0.19-0.458-0.19-0.15 0-0.3 0.052-0.421 0.156l-0.534 0.305c-0.001 0.001-0.002 0.001-0.003 0.002l-10.637 1.463c-0.838 0-1.524 0.686-1.524 1.524s0.686 1.524 1.524 1.524l5.673 0.072c0 0 8.792 8.796 10.746 10.75 1.536-1.957 2.906-4.004 3.295-5.788 0.021-0.095 0.061-0.184 0.12-0.261l0.275-0.693c0.197-0.257 0.174-0.62-0.055-0.85l-8.001-8.013z"></path>
            <path d="M4.14 20.080c0.23 0.229 0.53 0.344 0.831 0.344s0.602-0.115 0.831-0.344l0.919-0.919c0.459-0.459 0.459-1.203 0-1.662l-0.012-0.012c-0.23-0.23-0.53-0.344-0.831-0.344s-0.602 0.115-0.831 0.344l-0.919 0.919c-0.459 0.459-0.459 1.203 0 1.662l0.012 0.012z"></path>
            <path d="M7.473 23.301c0.301 0 0.602-0.115 0.831-0.344l2.175-2.175c0.459-0.459 0.459-1.203 0-1.662l-0.012-0.012c-0.229-0.23-0.53-0.344-0.831-0.344s-0.602 0.115-0.831 0.344l-2.175 2.175c-0.459 0.459-0.459 1.203 0 1.662l0.012 0.012c0.23 0.23 0.53 0.344 0.831 0.344z"></path>
            <path d="M9.463 25.643c0.229 0.229 0.53 0.344 0.831 0.344s0.602-0.115 0.831-0.344l1.408-1.408c0.459-0.459 0.459-1.203 0-1.662l-0.012-0.012c-0.23-0.229-0.53-0.344-0.831-0.344s-0.601 0.115-0.831 0.344l-1.408 1.408c-0.459 0.459-0.459 1.203 0 1.662l0.012 0.012z"></path>
            <path d="M13.937 28.34l0.64-0.64c0.459-0.459 0.459-1.203 0-1.662l-0.012-0.012c-0.229-0.229-0.53-0.344-0.831-0.344s-0.602 0.115-0.831 0.344l-0.64 0.64c-0.459 0.459-0.459 1.203 0 1.662l0.012 0.012c0.229 0.229 0.53 0.344 0.831 0.344s0.602-0.115 0.831-0.344z"></path>
        </symbol>
        <symbol id="icon-piramid" viewBox="0 0 32 32">
            <path fill="none" stroke="#99796c" style="stroke: var(--color1, #99796c)" stroke-linejoin="round" stroke-linecap="butt" stroke-miterlimit="10" stroke-width="0.9639" d="M16 2.12l-15.357 27.373h30.715z"></path>
            <path fill="none" stroke="#99796c" style="stroke: var(--color1, #99796c)" stroke-linejoin="round" stroke-linecap="round" stroke-miterlimit="10" stroke-width="0.9639" d="M19.406 12.916h-2.12v14.779h-2.57v-14.779h-2.12l3.406-6.040z"></path>
            <path fill="none" stroke="#99796c" style="stroke: var(--color1, #99796c)" stroke-linejoin="miter" stroke-linecap="butt" stroke-miterlimit="10" stroke-width="0.9639" d="M18.763 23.133h8.932"></path>
            <path fill="none" stroke="#99796c" style="stroke: var(--color1, #99796c)" stroke-linejoin="miter" stroke-linecap="butt" stroke-miterlimit="10" stroke-width="0.9639" d="M4.177 23.133h8.739"></path>
            <path fill="none" stroke="#99796c" style="stroke: var(--color1, #99796c)" stroke-linejoin="miter" stroke-linecap="butt" stroke-miterlimit="10" stroke-width="0.9639" d="M18.763 15.229h4.691"></path>
            <path fill="none" stroke="#99796c" style="stroke: var(--color1, #99796c)" stroke-linejoin="miter" stroke-linecap="butt" stroke-miterlimit="10" stroke-width="0.9639" d="M8.675 15.229h4.241"></path>
            <path fill="#99796c" style="fill: var(--color1, #99796c)" d="M10.731 22.297h-0.643v-0.643c-0.45 0-0.835-0.128-1.157-0.257l0.193-0.771c0.386 0.193 0.707 0.321 1.092 0.321 0.193 0 0.321-0.064 0.45-0.128s0.193-0.193 0.193-0.321c0-0.128-0.064-0.257-0.193-0.321s-0.321-0.193-0.578-0.257c-0.386-0.128-0.707-0.257-0.9-0.45s-0.321-0.45-0.321-0.771c0-0.321 0.129-0.578 0.321-0.771s0.45-0.386 0.835-0.45v-0.643h0.643v0.578c0.386 0 0.707 0.064 0.964 0.193l-0.193 0.771c-0.321-0.128-0.643-0.257-0.964-0.257-0.193 0-0.321 0.064-0.45 0.128-0.064 0.064-0.129 0.193-0.129 0.257 0 0.128 0.064 0.193 0.193 0.257s0.321 0.193 0.643 0.257c0.386 0.128 0.707 0.321 0.835 0.514 0.193 0.193 0.257 0.45 0.257 0.771s-0.064 0.643-0.257 0.9-0.514 0.386-0.9 0.45v0.643z"></path>
            <path fill="#99796c" style="fill: var(--color1, #99796c)" d="M7.582 27.502l0.128 0.643c-0.257 0.128-0.578 0.257-0.964 0.257-0.321 0-0.578-0.064-0.835-0.193s-0.45-0.257-0.643-0.514c-0.193-0.193-0.257-0.45-0.321-0.771h-0.321v-0.45h0.321v-0.128c0 0 0-0.064 0-0.064 0-0.064 0-0.064 0-0.064h-0.386v-0.45h0.386c0.064-0.321 0.193-0.578 0.386-0.835 0.386-0.386 0.835-0.643 1.414-0.643 0.321 0 0.643 0.064 0.9 0.193l-0.193 0.707c-0.257-0.064-0.45-0.128-0.643-0.128-0.321 0-0.578 0.128-0.771 0.321-0.064 0.064-0.128 0.257-0.193 0.386h1.478v0.45h-1.478c0 0.064 0 0.128 0 0.193v0.064h1.606v0.45h-1.542c0.064 0.193 0.128 0.321 0.193 0.45 0.193 0.193 0.45 0.321 0.771 0.321 0.257 0 0.514-0.064 0.707-0.193z"></path>
            <path fill="#99796c" style="fill: var(--color1, #99796c)" d="M11.823 27.502l0.129 0.643c-0.257 0.128-0.578 0.257-0.964 0.257-0.321 0-0.578-0.064-0.835-0.193s-0.45-0.257-0.643-0.514c-0.193-0.193-0.257-0.45-0.321-0.771h-0.386v-0.45h0.321v-0.128c0 0 0-0.064 0-0.064 0-0.064 0-0.064 0-0.064h-0.321v-0.45h0.386c0.064-0.321 0.193-0.578 0.386-0.835 0.386-0.386 0.835-0.643 1.414-0.643 0.321 0 0.643 0.064 0.9 0.193l-0.193 0.707c-0.257-0.064-0.45-0.128-0.643-0.128-0.321 0-0.578 0.128-0.771 0.321-0.064 0.064-0.129 0.257-0.193 0.386h1.478v0.45h-1.606c0 0.064 0 0.128 0 0.193v0.064h1.606v0.45h-1.542c0.064 0.193 0.129 0.321 0.193 0.45 0.193 0.193 0.45 0.321 0.771 0.321 0.386 0 0.643-0.064 0.835-0.193z"></path>
            <path fill="#99796c" style="fill: var(--color1, #99796c)" d="M21.912 27.502l0.128 0.643c-0.257 0.128-0.578 0.257-0.964 0.257-0.321 0-0.578-0.064-0.835-0.193s-0.45-0.257-0.643-0.514c-0.193-0.193-0.257-0.45-0.321-0.771h-0.386v-0.45h0.386v-0.128c0 0 0-0.064 0-0.064s0-0.064 0-0.064h-0.321v-0.45h0.386c0.064-0.321 0.193-0.578 0.386-0.835 0.386-0.386 0.835-0.643 1.414-0.643 0.321 0 0.643 0.064 0.9 0.193l-0.193 0.771c-0.257-0.064-0.45-0.128-0.643-0.128-0.321 0-0.578 0.128-0.771 0.321-0.064 0.064-0.128 0.257-0.193 0.386h1.478v0.45h-1.606c0 0.064 0 0.128 0 0.193v0.064h1.606v0.45h-1.478c0.064 0.193 0.128 0.321 0.193 0.45 0.193 0.193 0.45 0.321 0.771 0.321 0.321-0.064 0.514-0.128 0.707-0.257z"></path>
            <path fill="#99796c" style="fill: var(--color1, #99796c)" d="M26.088 27.502l0.128 0.643c-0.257 0.128-0.578 0.257-0.964 0.257-0.321 0-0.578-0.064-0.835-0.193s-0.45-0.257-0.643-0.514c-0.193-0.193-0.257-0.45-0.321-0.771h-0.321v-0.45h0.321v-0.128c0 0 0-0.064 0-0.064s0-0.064 0-0.064h-0.321v-0.45h0.386c0.064-0.321 0.193-0.578 0.386-0.835 0.386-0.386 0.835-0.643 1.414-0.643 0.321 0 0.643 0.064 0.9 0.193l-0.193 0.707c-0.257-0.064-0.45-0.128-0.643-0.128-0.321 0-0.578 0.128-0.771 0.321-0.064 0.064-0.128 0.257-0.193 0.386h1.478v0.45h-1.606c0 0.064 0 0.128 0 0.193v0.064h1.606v0.45h-1.478c0.064 0.193 0.128 0.321 0.193 0.45 0.193 0.193 0.45 0.321 0.771 0.321s0.514-0.064 0.707-0.193z"></path>
            <path fill="#99796c" style="fill: var(--color1, #99796c)" d="M22.104 22.297h-0.643v-0.643c-0.45 0-0.835-0.128-1.157-0.257l0.193-0.771c0.386 0.193 0.707 0.321 1.092 0.321 0.193 0 0.321-0.064 0.45-0.128s0.193-0.193 0.193-0.321c0-0.128-0.064-0.257-0.193-0.321s-0.321-0.193-0.578-0.257c-0.386-0.128-0.707-0.257-0.9-0.45s-0.321-0.45-0.321-0.771c0-0.321 0.128-0.578 0.321-0.771s0.45-0.386 0.835-0.45v-0.643h0.643v0.578c0.386 0 0.707 0.064 0.964 0.193l-0.193 0.771c-0.321-0.128-0.643-0.257-0.964-0.257-0.193 0-0.321 0.064-0.45 0.128s-0.128 0.193-0.128 0.257c0 0.128 0.064 0.193 0.193 0.257s0.321 0.193 0.643 0.257c0.386 0.128 0.707 0.321 0.835 0.514s0.257 0.45 0.257 0.771-0.128 0.578-0.321 0.771c-0.193 0.193-0.514 0.386-0.9 0.45v0.771z"></path>
        </symbol>
        <symbol id="icon-forex" viewBox="0 0 32 32">
            <path fill="none" stroke="#99796c" style="stroke: var(--color1, #99796c)" stroke-linejoin="miter" stroke-linecap="butt" stroke-miterlimit="10" stroke-width="0.9639" d="M14.329 5.333c-0.321-0.9-0.835-1.671-1.542-2.377v0c-1.285-1.285-3.020-2.056-4.948-2.056-3.855 0-6.94 3.084-6.94 6.94 0 1.928 0.771 3.598 1.992 4.884 0.643 0.643 1.478 1.221 2.377 1.542 0.771 0.321 1.671 0.514 2.57 0.514 0.193 0 0.386 0 0.578 0 3.341-0.257 6.040-2.892 6.361-6.233 0-0.193 0-0.45 0-0.643 0-0.964-0.193-1.799-0.45-2.57zM12.53 9.189c-0.45 1.606-1.799 2.892-3.406 3.341-0.386 0.129-0.835 0.193-1.285 0.193-0.707 0-1.414-0.129-2.056-0.45-0.835-0.386-1.606-1.028-2.056-1.799-0.514-0.835-0.771-1.735-0.771-2.699 0-2.699 2.185-4.884 4.884-4.884 0.964 0 1.928 0.321 2.699 0.771 0.771 0.514 1.414 1.221 1.799 2.12 0.257 0.578 0.386 1.285 0.386 1.992 0 0.514-0.064 0.964-0.193 1.414z"></path>
            <path fill="none" stroke="#99796c" style="stroke: var(--color1, #99796c)" stroke-linejoin="miter" stroke-linecap="butt" stroke-miterlimit="10" stroke-width="0.9639" d="M12.723 7.775c0 0.45-0.064 0.964-0.193 1.349-0.45 1.606-1.799 2.892-3.406 3.341-0.386 0.129-0.835 0.193-1.285 0.193-0.707 0-1.414-0.129-2.056-0.45-0.835-0.386-1.606-1.028-2.056-1.799-0.514-0.771-0.771-1.671-0.771-2.635 0-2.699 2.185-4.884 4.884-4.884 0.964 0 1.928 0.321 2.699 0.771 0.771 0.514 1.414 1.221 1.799 2.12 0.257 0.643 0.386 1.349 0.386 1.992z"></path>
            <path fill="#99796c" style="fill: var(--color1, #99796c)" d="M8.225 11.116h-0.771v-0.771c-0.514 0-0.964-0.129-1.349-0.321l0.257-0.964c0.45 0.257 0.835 0.321 1.349 0.321 0.257 0 0.386-0.064 0.578-0.129 0.129-0.064 0.193-0.193 0.193-0.386 0-0.129-0.064-0.257-0.193-0.386s-0.321-0.193-0.643-0.321c-0.45-0.129-0.835-0.321-1.092-0.578s-0.386-0.514-0.386-0.9c0-0.386 0.128-0.643 0.386-0.9s0.578-0.45 0.964-0.514v-0.643h0.771v0.707c0.45 0 0.835 0.128 1.157 0.257l-0.257 0.9c-0.386-0.193-0.771-0.257-1.157-0.257-0.257 0-0.386 0.064-0.514 0.128s-0.193 0.193-0.193 0.321c0 0.128 0.064 0.257 0.193 0.321 0.128 0.128 0.386 0.193 0.707 0.321 0.45 0.193 0.835 0.386 1.028 0.578s0.321 0.514 0.321 0.9-0.129 0.707-0.386 0.964-0.578 0.45-1.028 0.514v0.835z"></path>
            <path fill="#99796c" style="fill: var(--color1, #99796c)" d="M24.675 26.538h-1.157v-1.285h-1.221v-0.578h1.221v-0.514h-1.221v-0.578h0.964l-1.285-2.249h1.285l0.578 1.285c0.064 0.128 0.128 0.386 0.321 0.9v0c0 0 0.064-0.128 0.128-0.386 0.064-0.193 0.128-0.386 0.193-0.514l0.578-1.285h1.285l-1.349 2.249h0.964v0.578h-1.221v0.514h1.221v0.578h-1.221v1.285z"></path>
            <path fill="none" stroke="#99796c" style="stroke: var(--color1, #99796c)" stroke-linejoin="miter" stroke-linecap="butt" stroke-miterlimit="10" stroke-width="0.9639" d="M20.369 16c0 2.449-1.985 4.434-4.434 4.434s-4.434-1.985-4.434-4.434c0-2.449 1.985-4.434 4.434-4.434s4.434 1.985 4.434 4.434z"></path>
            <path fill="none" stroke="#99796c" style="stroke: var(--color1, #99796c)" stroke-linejoin="miter" stroke-linecap="butt" stroke-miterlimit="10" stroke-width="0.9639" d="M23.518 16c0 0.386 0 0.707-0.064 1.028-3.341 0.321-6.040 3.084-6.233 6.426-0.45 0.064-0.835 0.128-1.285 0.128-4.177 0-7.647-3.406-7.647-7.647 0-0.45 0.064-0.9 0.129-1.285 3.341-0.257 6.040-2.892 6.361-6.233 0.386-0.064 0.771-0.064 1.157-0.064 4.177 0 7.582 3.47 7.582 7.647z"></path>
            <path fill="none" stroke="#99796c" style="stroke: var(--color1, #99796c)" stroke-linejoin="miter" stroke-linecap="butt" stroke-miterlimit="10" stroke-width="0.9639" d="M26.667 16c0 0.514 0 0.964-0.128 1.478-0.771-0.321-1.606-0.45-2.442-0.45-0.257 0-0.45 0-0.707 0.064-3.341 0.321-6.040 3.084-6.233 6.426 0 0.128 0 0.321 0 0.45 0 0.964 0.193 1.863 0.514 2.699-0.578 0.128-1.221 0.128-1.863 0.128-5.847 0-10.667-4.819-10.667-10.795 0-0.578 0.064-1.221 0.128-1.799 0.771 0.321 1.671 0.514 2.57 0.514 0.193 0 0.386 0 0.578 0 3.341-0.257 6.040-2.892 6.361-6.233 0-0.193 0-0.45 0-0.643 0-0.9-0.129-1.735-0.45-2.442 0.514-0.064 1.028-0.128 1.606-0.128 5.912-0.064 10.731 4.755 10.731 10.731z"></path>
            <path fill="none" stroke="#99796c" style="stroke: var(--color1, #99796c)" stroke-linejoin="miter" stroke-linecap="butt" stroke-miterlimit="10" stroke-width="0.9639" d="M29.044 23.904c0 2.699-2.185 4.884-4.884 4.884-0.9 0-1.799-0.257-2.506-0.707-0.835-0.514-1.478-1.221-1.863-2.056-0.321-0.643-0.514-1.349-0.514-2.12 0-0.386 0.064-0.771 0.128-1.157 0.386-1.735 1.735-3.084 3.406-3.534 0.386-0.128 0.835-0.193 1.349-0.193 0.707 0 1.349 0.128 1.992 0.45 0.9 0.386 1.606 1.028 2.12 1.799 0.45 0.771 0.771 1.671 0.771 2.635z"></path>
            <path fill="none" stroke="#99796c" style="stroke: var(--color1, #99796c)" stroke-linejoin="miter" stroke-linecap="butt" stroke-miterlimit="10" stroke-width="0.9639" d="M28.98 18.956c-0.643-0.643-1.478-1.157-2.378-1.542-0.771-0.321-1.606-0.45-2.442-0.45-0.257 0-0.45 0-0.707 0.064-3.341 0.321-6.040 3.084-6.233 6.426 0 0.128 0 0.321 0 0.45 0 0.964 0.193 1.863 0.514 2.699 0.386 0.9 0.964 1.671 1.606 2.313 1.221 1.157 2.956 1.928 4.755 1.928 3.791 0 6.94-3.084 6.94-6.94 0-1.928-0.771-3.663-2.056-4.948zM24.161 28.851c-0.9 0-1.799-0.257-2.506-0.707-0.835-0.514-1.478-1.221-1.863-2.056-0.321-0.643-0.514-1.349-0.514-2.12 0-0.386 0.064-0.771 0.128-1.157 0.386-1.735 1.735-3.084 3.406-3.534 0.386-0.128 0.835-0.193 1.349-0.193 0.707 0 1.349 0.128 1.992 0.45 0.9 0.386 1.606 1.028 2.12 1.799s0.771 1.671 0.771 2.635c0 2.699-2.185 4.884-4.884 4.884z"></path>
            <path fill="none" stroke="#99796c" style="stroke: var(--color1, #99796c)" stroke-linejoin="miter" stroke-linecap="butt" stroke-miterlimit="10" stroke-width="0.9639" d="M31.036 16c0 0.771-0.064 1.542-0.193 2.313l-1.799 0.064c-0.064 0.193-0.064 0.45-0.128 0.643-0.643-0.643-1.478-1.157-2.378-1.542-0.771-0.321-1.606-0.45-2.442-0.45-0.257 0-0.45 0-0.707 0.064-3.341 0.321-6.040 3.084-6.233 6.426 0 0.128 0 0.257 0 0.45 0 0.964 0.193 1.863 0.514 2.699 0.386 0.9 0.964 1.671 1.606 2.313-0.321 0.064-0.578 0.128-0.9 0.193l-0.064 1.799c-0.835 0.128-1.671 0.193-2.506 0.193-0.707 0-1.349-0.064-2.056-0.128l-0.064-1.799c-1.992-0.321-3.855-1.092-5.398-2.185l-1.221 1.221c-0.064-0.064-0.128-0.064-0.193-0.128v0c-1.157-0.835-2.185-1.863-3.020-3.020l1.221-1.285c-1.157-1.606-1.928-3.47-2.313-5.462l-1.735-0.064v-4.498l1.735-0.064c0.064-0.321 0.128-0.643 0.193-1.028 0.643 0.643 1.478 1.221 2.377 1.542 0.771 0.321 1.671 0.514 2.57 0.514 0.193 0 0.386 0 0.578 0 3.341-0.257 6.040-2.892 6.361-6.233 0-0.193 0-0.45 0-0.643 0-0.835-0.129-1.671-0.45-2.442-0.321-0.9-0.835-1.735-1.542-2.377 0.321-0.064 0.643-0.128 0.964-0.193l0.064-1.735c0.643-0.129 1.349-0.129 2.056-0.129 0.835 0 1.671 0.064 2.506 0.193l0.064 1.799c1.928 0.386 3.727 1.157 5.205 2.249l1.285-1.221c1.221 0.9 2.313 1.992 3.213 3.277l-1.221 1.285c1.028 1.542 1.799 3.277 2.12 5.205l1.799 0.064c0.064 0.578 0.128 1.349 0.128 2.12z"></path>
        </symbol>
        <symbol id="icon-options" viewBox="0 0 32 32">
            <path fill="none" stroke="#99796c" style="stroke: var(--color1, #99796c)" stroke-linejoin="round" stroke-linecap="butt" stroke-miterlimit="10" stroke-width="0.9639" d="M0.9 20.755v4.948c0 2.249 1.863 4.112 4.112 4.112h21.912c2.249 0 4.112-1.863 4.112-4.112v-4.948h-30.137z"></path>
            <path fill="#99796c" style="fill: var(--color1, #99796c)" d="M11.438 27.116c-0.321 0.321-0.835 0.45-1.478 0.45-0.257 0-0.514 0-0.771-0.064s-0.45-0.128-0.643-0.193l0.257-0.9c0.386 0.193 0.835 0.321 1.221 0.321 0.257 0 0.45-0.064 0.578-0.128s0.193-0.257 0.193-0.386c0-0.128-0.064-0.257-0.193-0.386s-0.321-0.193-0.643-0.321c-0.9-0.321-1.349-0.835-1.349-1.478 0-0.45 0.193-0.771 0.514-1.092s0.771-0.45 1.349-0.45c0.514 0 0.9 0.064 1.285 0.257l-0.257 0.9c-0.321-0.128-0.643-0.257-1.028-0.257-0.257 0-0.386 0.064-0.514 0.128s-0.193 0.193-0.193 0.321c0 0.128 0.064 0.257 0.193 0.386 0.129 0.064 0.386 0.193 0.707 0.321 0.45 0.193 0.771 0.386 0.964 0.578 0.193 0.257 0.321 0.514 0.321 0.9s-0.129 0.771-0.514 1.092z"></path>
            <path fill="#99796c" style="fill: var(--color1, #99796c)" d="M15.936 27.438h-3.213v-4.948h3.084v0.9h-1.928v1.028h1.799v0.9h-1.799v1.221h2.056z"></path>
            <path fill="#99796c" style="fill: var(--color1, #99796c)" d="M19.791 27.438h-3.084v-4.948h1.092v3.984h1.992z"></path>
            <path fill="#99796c" style="fill: var(--color1, #99796c)" d="M23.582 27.438h-3.149v-4.948h1.157v3.984h1.992z"></path>
            <path fill="#99796c" style="fill: var(--color1, #99796c)" d="M7.904 18.12v0c-0.578 0-1.028-0.193-1.349-0.578s-0.45-0.835-0.45-1.414c0-0.578 0.193-1.092 0.514-1.478s0.771-0.578 1.349-0.578c0.578 0 1.028 0.193 1.349 0.578s0.514 0.835 0.514 1.414c0 0.643-0.193 1.157-0.514 1.478s-0.835 0.578-1.414 0.578zM7.968 17.414v0c0.321 0 0.514-0.128 0.707-0.386s0.257-0.578 0.257-0.964c0-0.386-0.064-0.643-0.257-0.9s-0.386-0.386-0.707-0.386-0.514 0.129-0.707 0.386c-0.193 0.257-0.257 0.578-0.257 0.964s0.064 0.707 0.257 0.9c0.193 0.257 0.45 0.386 0.707 0.386z"></path>
            <path fill="#99796c" style="fill: var(--color1, #99796c)" d="M10.41 18.056v-3.855c0.321-0.064 0.707-0.064 1.157-0.064 0.514 0 0.9 0.129 1.157 0.321s0.386 0.514 0.386 0.9c0 0.386-0.129 0.707-0.386 0.9-0.321 0.257-0.707 0.386-1.285 0.386-0.129 0-0.257 0-0.321 0v1.414h-0.707zM11.309 14.843v1.157c0.064 0 0.193 0 0.321 0 0.257 0 0.45-0.064 0.578-0.193s0.193-0.257 0.193-0.45c0-0.193-0.064-0.321-0.193-0.45s-0.321-0.129-0.514-0.129c-0.257 0-0.321 0-0.386 0.064z"></path>
            <path fill="#99796c" style="fill: var(--color1, #99796c)" d="M14.522 18.056v-3.149h-1.028v-0.771h2.956v0.707h-1.028v3.149h-0.9z"></path>
            <path fill="#99796c" style="fill: var(--color1, #99796c)" d="M16.9 14.137h0.9v3.855h-0.9v-3.855z"></path>
            <path fill="#99796c" style="fill: var(--color1, #99796c)" d="M20.177 18.12v0c-0.578 0-1.028-0.193-1.349-0.578s-0.514-0.835-0.514-1.414c0-0.578 0.193-1.092 0.514-1.478s0.771-0.578 1.349-0.578c0.578 0 1.028 0.193 1.349 0.578s0.514 0.835 0.514 1.414c0 0.643-0.193 1.157-0.514 1.478s-0.771 0.578-1.349 0.578zM20.241 17.414v0c0.321 0 0.514-0.128 0.707-0.386s0.257-0.578 0.257-0.964c0-0.386-0.064-0.643-0.257-0.9s-0.386-0.386-0.707-0.386-0.514 0.129-0.707 0.386c-0.128 0.257-0.257 0.578-0.257 0.964s0.064 0.707 0.257 0.9c0.193 0.257 0.386 0.386 0.707 0.386z"></path>
            <path fill="#99796c" style="fill: var(--color1, #99796c)" d="M23.454 18.056h-0.835v-3.855h1.028l0.835 1.414c0.193 0.386 0.45 0.835 0.643 1.349v0c-0.064-0.45-0.064-1.028-0.064-1.606v-1.221h0.835v3.855h-0.9l-0.835-1.478c-0.321-0.578-0.514-1.028-0.643-1.349v0c0 0.514 0.064 1.028 0.064 1.671v1.221z"></path>
            <path fill="none" stroke="#99796c" style="stroke: var(--color1, #99796c)" stroke-linejoin="round" stroke-linecap="butt" stroke-miterlimit="10" stroke-width="0.9639" d="M26.924 2.185h-21.912c-2.249 0-4.112 1.863-4.112 4.112v4.948h30.137v-4.948c0.064-2.249-1.799-4.112-4.112-4.112z"></path>
            <path fill="#99796c" style="fill: var(--color1, #99796c)" d="M18.056 6.683c0 0.771-0.193 1.349-0.514 1.671-0.386 0.386-0.9 0.578-1.542 0.578-1.349 0-1.992-0.771-1.992-2.249v-2.763h1.092v2.827c0 0.45 0.064 0.771 0.257 0.964s0.386 0.321 0.643 0.321c0.643 0 0.9-0.45 0.9-1.285v-2.827h1.092v2.763z"></path>
            <path fill="#99796c" style="fill: var(--color1, #99796c)" d="M21.269 6.811v2.056h-1.092v-2.056l-1.542-2.956h1.285l0.514 1.221c0.128 0.386 0.257 0.707 0.321 0.964v0c0.064-0.257 0.193-0.514 0.386-0.964l0.514-1.221h1.285l-1.671 2.956z"></path>
            <path fill="#99796c" style="fill: var(--color1, #99796c)" d="M12.916 6.618c-0.193-0.193-0.386-0.321-0.707-0.45v0c0.257-0.128 0.45-0.257 0.578-0.45s0.193-0.386 0.193-0.643c0-0.45-0.193-0.771-0.578-0.964-0.257-0.128-0.771-0.257-1.414-0.257-0.578 0-1.092 0.064-1.478 0.128v4.884c0.321 0.064 0.771 0.064 1.221 0.064 0.9 0 1.606-0.129 1.928-0.45 0.321-0.257 0.514-0.643 0.514-1.028 0-0.321-0.064-0.578-0.257-0.835zM10.602 4.691c0.129 0 0.257-0.064 0.45-0.064 0.514 0 0.771 0.193 0.771 0.578 0 0.193-0.064 0.321-0.257 0.45-0.129 0.128-0.386 0.193-0.707 0.193h-0.386v-1.157zM11.759 7.904c-0.193 0.129-0.386 0.193-0.707 0.193-0.193 0-0.386 0-0.45 0v-1.414h0.386c0.321 0 0.514 0.064 0.707 0.193s0.257 0.321 0.257 0.514c0.064 0.257 0 0.386-0.193 0.514z"></path>
        </symbol>
        <symbol id="icon-medal" viewBox="0 0 32 32">
            <path fill="#98796c" style="fill: var(--color1, #98796c)" d="M1.671 28.466h0.9v0.964h-0.9v-0.964z"></path>
            <path fill="#98796c" style="fill: var(--color1, #98796c)" d="M15.871 31.165c-5.847 0-10.602-4.755-10.602-10.602 0-3.084 1.349-6.040 3.727-8.032 0.578-0.514 1.285-0.964 1.992-1.349s1.478-0.643 2.185-0.835c0.771-0.193 1.671-0.321 2.506-0.321 0.064 0 0.129 0 0.193 0 0.321 0 0.578 0 0.835 0.064 0.835 0.064 1.606 0.193 2.442 0.45 0.771 0.257 1.478 0.578 2.185 0.964 0.707 0.45 1.349 0.9 1.928 1.478 0.257 0.257 0.578 0.578 0.835 0.9l-0.771 0.643c-0.257-0.257-0.45-0.578-0.771-0.835-0.514-0.514-1.157-0.964-1.799-1.349-0.578-0.386-1.285-0.643-1.992-0.9s-1.478-0.386-2.185-0.45c-0.257 0-0.514-0.064-0.835-0.064-0.064 0-0.064 0-0.129 0-0.771 0-1.542 0.129-2.313 0.321-0.707 0.193-1.349 0.45-1.992 0.771s-1.285 0.771-1.799 1.221c-2.12 1.863-3.341 4.498-3.341 7.325 0 5.333 4.305 9.639 9.639 9.639s9.639-4.305 9.639-9.639c0-1.863-0.514-3.663-1.542-5.205l0.835-0.514c1.092 1.735 1.671 3.663 1.671 5.719 0.128 5.847-4.627 10.602-10.538 10.602zM15.871 28.53c-1.863 0-3.598-0.643-5.012-1.799l0.643-0.771c1.221 1.028 2.827 1.606 4.434 1.606 3.855 0 6.94-3.149 6.94-6.94 0-1.542-0.514-3.020-1.414-4.241-0.45-0.578-1.028-1.157-1.671-1.542-0.578-0.386-1.221-0.707-1.928-0.9-0.386-0.129-0.707-0.193-1.092-0.193-0.321-0.064-0.578-0.064-0.9-0.064-0.064 0-0.129 0-0.257 0-0.386 0-0.771 0.064-1.157 0.129-0.707 0.129-1.349 0.386-1.992 0.771s-1.221 0.835-1.735 1.349c-1.157 1.285-1.799 2.956-1.799 4.691 0 1.542 0.45 2.956 1.414 4.177l-0.771 0.578c-1.028-1.349-1.606-3.020-1.606-4.755 0-1.992 0.707-3.855 2.056-5.333 0.578-0.643 1.221-1.157 1.992-1.542 0.707-0.386 1.478-0.707 2.249-0.835 0.45-0.064 0.9-0.129 1.349-0.193 0.386 0 0.9 0 1.285 0.064s0.835 0.129 1.221 0.257c0.771 0.257 1.542 0.578 2.185 1.028 0.707 0.514 1.349 1.092 1.863 1.799 1.028 1.414 1.606 3.020 1.606 4.819 0.064 4.241-3.534 7.839-7.904 7.839z"></path>
            <path fill="#98796c" style="fill: var(--color1, #98796c)" d="M9.124 13.687l-5.333-12.851h8.482l4.112 10.088h-0.707c-0.771 0-1.542 0.129-2.249 0.321s-1.349 0.45-1.992 0.771c-0.643 0.321-1.285 0.771-1.799 1.221l-0.514 0.45zM5.205 1.799l4.241 10.345c0.45-0.386 0.964-0.643 1.478-0.964 0.707-0.386 1.478-0.643 2.185-0.835 0.578-0.129 1.157-0.257 1.799-0.321l-3.277-8.225h-6.426z"></path>
            <path fill="#98796c" style="fill: var(--color1, #98796c)" d="M10.988 12.273l-4.755-11.438h5.976l4.177 10.088h-0.707c-0.771 0-1.542 0.129-2.249 0.321s-1.349 0.45-1.992 0.771l-0.45 0.257zM7.711 1.799l3.727 9.124c0.578-0.257 1.157-0.45 1.735-0.643 0.578-0.129 1.157-0.257 1.799-0.321l-3.341-8.161h-3.92z"></path>
            <path fill="#98796c" style="fill: var(--color1, #98796c)" d="M13.044 11.373l-4.369-10.538h3.534l4.177 10.088h-0.707c-0.771 0-1.542 0.129-2.249 0.321l-0.386 0.129zM10.153 1.799l3.47 8.418c0.45-0.129 0.9-0.193 1.414-0.193l-3.406-8.225h-1.478z"></path>
            <path fill="#98796c" style="fill: var(--color1, #98796c)" d="M23.133 14.137l-0.514-0.514c-0.514-0.514-1.157-0.964-1.799-1.349-0.578-0.386-1.285-0.643-1.992-0.9s-1.478-0.386-2.185-0.45l-0.643-0.064 4.177-10.088h8.482l-5.526 13.365zM17.414 10.088c0.578 0.064 1.221 0.193 1.799 0.386 0.771 0.257 1.478 0.578 2.185 0.964 0.514 0.321 0.964 0.643 1.414 1.028l4.434-10.731h-6.361l-3.47 8.353z"></path>
            <path fill="#98796c" style="fill: var(--color1, #98796c)" d="M21.333 12.594l-0.45-0.321c-0.578-0.386-1.285-0.643-1.992-0.9s-1.478-0.386-2.185-0.45l-0.643-0.064 4.177-10.088h5.976l-4.884 11.823zM17.414 10.088c0.578 0.064 1.221 0.193 1.799 0.386s1.157 0.45 1.671 0.707l3.855-9.446h-3.92l-3.406 8.353z"></path>
            <path fill="#98796c" style="fill: var(--color1, #98796c)" d="M19.341 11.502l-0.45-0.129c-0.707-0.257-1.478-0.386-2.185-0.45l-0.643-0.064 4.177-10.088h3.534l-4.434 10.731zM17.414 10.088c0.45 0.064 0.9 0.129 1.349 0.257l3.534-8.546h-1.478l-3.406 8.289z"></path>
            <path fill="#98796c" style="fill: var(--color1, #98796c)" d="M19.406 25.896l-3.534-1.863-3.534 1.863 0.707-3.92-2.892-2.763 3.984-0.578 1.799-3.598 1.799 3.598 3.984 0.578-2.892 2.763 0.578 3.92zM15.871 22.94l2.249 1.157-0.45-2.506 1.799-1.799-2.506-0.386-1.157-2.313-1.157 2.313-2.442 0.45 1.799 1.799-0.45 2.506 2.313-1.221z"></path>
            <path fill="#98796c" style="fill: var(--color1, #98796c)" d="M27.438 9.703h0.964v4.627h-0.964v-4.627z"></path>
            <path fill="#98796c" style="fill: var(--color1, #98796c)" d="M25.574 11.566h4.627v0.964h-4.627v-0.964z"></path>
            <path fill="#98796c" style="fill: var(--color1, #98796c)" d="M27.888 14.072l-2.056-2.056 2.056-2.056 2.056 2.056-2.056 2.056zM27.181 12.016l0.707 0.707 0.707-0.707-0.707-0.707-0.707 0.707z"></path>
            <path fill="#98796c" style="fill: var(--color1, #98796c)" d="M3.341 30.072h0.964v0.9h-0.964v-0.9z"></path>
            <path fill="#98796c" style="fill: var(--color1, #98796c)" d="M3.341 26.345h0.964v0.9h-0.964v-0.9z"></path>
            <path fill="#98796c" style="fill: var(--color1, #98796c)" d="M5.205 28.209h0.9v0.964h-0.9v-0.964z"></path>
            <path fill="#98796c" style="fill: var(--color1, #98796c)" d="M3.855 30.715l-2.056-2.056 2.056-2.056 2.056 2.056-2.056 2.056zM3.149 28.659l0.707 0.707 0.707-0.707-0.707-0.707-0.707 0.707z"></path>
        </symbol>
        <symbol id="icon-dif-1" viewBox="0 0 32 32">
            <path fill="#a4a770" style="fill: var(--color1, #a4a770)" d="M28.53 0.321h-19.727c-0.257 0-0.514 0.193-0.514 0.514v4.112h-4.819c-0.257-0.064-0.45 0.193-0.45 0.45v25.831c0 0.257 0.193 0.514 0.514 0.514h19.727c0.257 0 0.514-0.193 0.514-0.514v-4.112h4.884c0.257 0 0.514-0.193 0.514-0.514v-25.831c-0.193-0.257-0.386-0.45-0.643-0.45zM22.683 30.715h-18.699v-24.867h13.494v5.205c0 0.064 0 0.129 0.064 0.129 0 0 0 0 0 0 0 0.064 0.064 0.129 0.128 0.193 0.064 0 0.064 0.064 0.128 0.064 0 0 0.064 0 0.064 0v0c0 0 0 0 0.064 0 0 0 0.064 0 0.064 0h4.755v19.277zM18.378 10.602v-3.984l3.663 3.984h-3.663zM28.016 26.153h-4.369v-15.1c0-0.064 0-0.064 0-0.129s-0.064-0.129-0.064-0.193c0 0 0-0.064-0.064-0.064l-5.269-5.719c0 0 0 0 0 0-0.064-0.064-0.128-0.064-0.128-0.128-0.064 0-0.128-0.064-0.193-0.064h-8.61v-3.47h18.699v24.867z"></path>
            <path fill="#a4a770" style="fill: var(--color1, #a4a770)" d="M7.904 9.446h6.104v0.964h-6.104v-0.964z"></path>
            <path fill="#a4a770" style="fill: var(--color1, #a4a770)" d="M7.904 15.614h10.988v0.964h-10.988v-0.964z"></path>
            <path fill="#a4a770" style="fill: var(--color1, #a4a770)" d="M7.904 19.084h10.988v0.964h-10.988v-0.964z"></path>
            <path fill="#a4a770" style="fill: var(--color1, #a4a770)" d="M7.904 22.618h10.988v0.964h-10.988v-0.964z"></path>
            <path fill="#a4a770" style="fill: var(--color1, #a4a770)" d="M7.904 26.153h10.988v0.964h-10.988v-0.964z"></path>
        </symbol>
        <symbol id="icon-dif-2" viewBox="0 0 32 32">
            <path fill="#a4a770" style="fill: var(--color1, #a4a770)" d="M16.964 10.602c-0.128 0.064-0.257 0.064-0.386 0.129-0.386 0.129-0.707 0.193-1.028 0.321 0 0-0.064 0-0.064 0.064-0.193 0.064-0.386 0.129-0.45 0.129h-1.542v0.964h1.606c0 0 0.064 0 0.129 0 0 0 0.064 0 0.064 0s0 0 0.064 0c0.129-0.064 0.643-0.193 1.221-0.386 0.193-0.064 0.45-0.129 0.643-0.193s0.321-0.257 0.321-0.45v-0.643c-0.193 0-0.386 0-0.578 0.064z"></path>
            <path fill="#a4a770" style="fill: var(--color1, #a4a770)" d="M15.486 11.052c-0.193 0.064-0.386 0.129-0.45 0.129h-1.542v0.964h1.606c0 0 0.064 0 0.129 0 0 0 0.064 0 0.064 0s0 0 0.064 0c0.193-0.064 0.257-0.257 0.257-0.45v-0.643c-0.064 0-0.129 0-0.129 0z"></path>
            <path fill="#a4a770" style="fill: var(--color1, #a4a770)" d="M10.859 3.727h-3.534c-0.257 0-0.514-0.193-0.514-0.514s0.193-0.514 0.514-0.514h3.534c0.257 0 0.514 0.193 0.514 0.514s-0.257 0.514-0.514 0.514z"></path>
            <path fill="#a4a770" style="fill: var(--color1, #a4a770)" d="M10.281 29.687h-2.57c-0.257 0-0.514-0.193-0.514-0.514s0.193-0.514 0.514-0.514h2.57c0.257 0 0.514 0.193 0.514 0.514s-0.193 0.514-0.514 0.514z"></path>
            <path fill="#a4a770" style="fill: var(--color1, #a4a770)" d="M29.88 18.378v0c0 0 0 0 0 0s0 0 0 0z"></path>
            <path fill="#a4a770" style="fill: var(--color1, #a4a770)" d="M29.815 18.378c0.064 0 0.064 0 0 0v0c0.064 0 0.064 0 0 0z"></path>
            <path fill="#a4a770" style="fill: var(--color1, #a4a770)" d="M30.008 18.249c0 0-0.064 0.064-0.064 0.064s0.064-0.064 0.064-0.064c0 0 0 0 0 0z"></path>
            <path fill="#a4a770" style="fill: var(--color1, #a4a770)" d="M30.201 19.984c0.128-0.193 0.193-0.45 0.193-0.643v-0.128c0-0.321-0.128-0.707-0.321-0.964 0 0-0.064 0.064-0.064 0.064s0-0.064 0.064-0.064c0 0 0 0 0 0 0.257-0.257 0.321-0.578 0.321-0.9v-0.128c0-0.321-0.128-0.707-0.321-0.964 0 0 0.064-0.064 0.064-0.064 0.193-0.257 0.257-0.514 0.257-0.835v-0.129c0-0.193-0.064-0.386-0.128-0.578 0.514-0.193 0.9-0.707 0.9-1.285v-0.193c0-0.771-0.707-1.414-1.606-1.414h-0.321l1.414-2.956c0.193-0.386 0.193-0.9 0.064-1.285-0.193-0.45-0.514-0.771-0.964-0.9-0.321-0.128-0.771-0.064-1.092 0.128l-1.221 0.835c-0.064 0.064-0.193 0.064-0.257 0l-1.671-0.9c-0.386-0.193-0.771-0.193-1.157 0l-1.606 0.835c-0.064 0.064-0.193 0.064-0.257 0l-1.285-0.835c-0.321-0.193-0.707-0.257-1.028-0.128-0.45 0.128-0.771 0.514-0.964 0.9-0.193 0.45-0.128 0.9 0.064 1.285l0.643 1.285c-0.578 0-1.349 0.129-2.378 0.386v-7.711c0-1.349-1.092-2.442-2.442-2.442h-12.145c-1.349 0-2.442 1.092-2.442 2.442v26.602c0 1.349 1.092 2.442 2.442 2.442h12.145c1.349 0 2.442-1.092 2.442-2.442v-9.703c0.578 0.193 1.221 0.45 1.928 0.771-0.643 1.092-1.028 2.313-1.028 3.598 0 3.727 2.892 6.747 6.49 6.747s6.49-3.020 6.49-6.747c0.064-1.414-0.386-2.827-1.221-3.984zM20.177 7.904c0.064-0.193 0.193-0.321 0.386-0.386 0.064 0 0.128 0 0.193 0.064l1.285 0.835c0.386 0.257 0.9 0.257 1.285 0.064l1.606-0.835c0.064-0.064 0.193-0.064 0.257 0l1.671 0.835c0.386 0.193 0.9 0.193 1.285-0.064l1.157-0.835c0.064-0.064 0.128-0.064 0.193-0.064 0.193 0.064 0.321 0.193 0.386 0.386 0 0.064 0.064 0.128 0.064 0.257 0 0.064 0 0.193-0.064 0.257l-1.671 3.406h-6.361l-0.643-1.349-0.964-2.056c-0.128-0.193-0.128-0.386-0.064-0.514zM1.478 2.699c0-0.835 0.643-1.478 1.478-1.478h12.145c0.835 0 1.478 0.643 1.478 1.478v2.056h-15.1v-2.056zM16.578 29.301c0 0.835-0.643 1.478-1.478 1.478h-12.145c-0.835 0-1.478-0.643-1.478-1.478v-1.799h15.1v1.799zM16.578 26.538h-15.1v-20.819h15.1v5.012c-0.386 0.129-0.707 0.193-1.028 0.321v0c0 0-0.064 0-0.064 0s0.064 0 0.064-0.064v-3.727c0-0.257-0.193-0.514-0.514-0.514h-12.016c-0.257 0-0.514 0.193-0.514 0.514v17.928c0.064 0.321 0.257 0.514 0.514 0.514h12.080c0.257 0 0.514-0.193 0.514-0.514v-6.104c0.257 0.064 0.321 0.064 0.321 0.064s0.064 0 0.064 0c0.193 0 0.386 0.064 0.578 0.128v7.261zM12.98 10.088h-5.012c-0.257 0-0.514 0.193-0.514 0.514v9.124c0 0.257 0.193 0.514 0.514 0.514h5.012c0.257 0 0.514-0.193 0.514-0.514v-0.643c0.193 0 0.386 0 0.578 0 0.064 0 0.129 0 0.257 0s0.193 0 0.257 0v5.655h-11.052v-16.964h11.116v3.406h-1.157v-0.643c0-0.257-0.193-0.45-0.514-0.45zM11.052 12.787c-0.257 0-0.514 0.193-0.514 0.514v5.976h-2.12v-8.225h2.12v0.835c0 0.257 0.193 0.514 0.514 0.514 0.257 0 0.514-0.193 0.514-0.514v-0.835h0.964v8.225h-0.964v-5.976c0-0.257-0.193-0.514-0.514-0.514zM17.285 18.506c0 0-0.064 0-0.064 0-0.321-0.064-0.707-0.193-1.028-0.257-0.128 0-0.386-0.064-1.028-0.128-0.578 0-1.221 0-1.606 0v-5.912h1.606c0 0 0.064 0 0.129 0 0 0 0.064 0 0.064 0s0 0 0.064 0c0.129-0.064 0.643-0.193 1.221-0.386 0.193-0.064 0.45-0.129 0.643-0.193 1.799-0.514 2.57-0.514 2.956-0.514 0.064 0 0.128 0 0.257 0.064l0.578 1.157c0 0.129 0.064 0.193 0.128 0.257 0.064 0.129 0.257 0.193 0.386 0.193h7.968c0.321 0 0.643 0.193 0.643 0.45v0.193c0 0.257-0.257 0.45-0.643 0.45h-6.49c-0.257 0-0.514 0.193-0.514 0.514 0 0.257 0.193 0.514 0.514 0.514h5.912c0.064 0 0.064 0 0.128 0 0.193 0.064 0.321 0.193 0.321 0.386v0.129c0 0.129 0 0.193-0.064 0.257-0.064 0.129-0.193 0.193-0.386 0.193h-5.912c-0.257 0-0.514 0.193-0.514 0.514 0 0.257 0.193 0.514 0.514 0.514h5.912c0.257 0 0.45 0.193 0.45 0.45v0c0 0.128-0.064 0.257-0.128 0.321s-0.064 0.064-0.064 0.128c-0.064 0-0.128 0-0.193 0h-5.912c-0.257 0-0.514 0.193-0.514 0.514 0 0.257 0.193 0.514 0.514 0.514h5.912c0.257 0 0.45 0.193 0.45 0.45v0c0 0.128-0.064 0.257-0.128 0.321s-0.193 0.128-0.321 0.128h-8.675c-1.221-0.578-2.249-0.964-3.084-1.221zM29.88 18.378v0c0 0 0 0 0 0s0 0 0 0zM24.996 29.751c-3.084 0-5.526-2.57-5.526-5.783 0-1.221 0.321-2.313 0.964-3.277h8.546c0.193 0 0.386-0.064 0.514-0.128 0.643 0.964 1.028 2.185 1.028 3.406 0 3.213-2.506 5.783-5.526 5.783z"></path>
            <path fill="#a4a770" style="fill: var(--color1, #a4a770)" d="M29.237 17.671c-0.064 0.064-0.064 0.064-0.064 0.128-0.064 0-0.128 0-0.193 0 0.064-0.064 0.193-0.064 0.257-0.128z"></path>
            <path fill="#a4a770" style="fill: var(--color1, #a4a770)" d="M29.173 14.843c-0.064 0-0.064 0-0.128 0 0 0-0.064 0-0.064 0-0.257 0-0.514-0.193-0.514-0.514s0.193-0.514 0.514-0.514h0.257c0.257 0 0.45 0.193 0.45 0.386s0 0.386-0.128 0.45c-0.128 0.129-0.257 0.193-0.386 0.193z"></path>
            <path fill="#a4a770" style="fill: var(--color1, #a4a770)" d="M25.51 28.145h-0.771v-0.707c-0.514 0-0.9-0.128-1.285-0.321l0.257-0.9c0.386 0.193 0.835 0.321 1.285 0.321 0.193 0 0.386-0.064 0.514-0.128s0.193-0.193 0.193-0.321c0-0.128-0.064-0.257-0.193-0.386s-0.321-0.193-0.643-0.321c-0.45-0.128-0.771-0.321-1.028-0.514s-0.321-0.514-0.321-0.835c0-0.321 0.128-0.643 0.321-0.9 0.257-0.257 0.514-0.386 0.964-0.45v-0.707h0.771v0.643c0.386 0 0.771 0.064 1.092 0.257l-0.257 0.9c-0.386-0.193-0.707-0.257-1.092-0.257-0.257 0-0.386 0.064-0.514 0.128s-0.128 0.193-0.128 0.321c0 0.128 0.064 0.193 0.193 0.321 0.128 0.064 0.386 0.193 0.707 0.321 0.45 0.128 0.771 0.321 0.964 0.578 0.193 0.193 0.321 0.514 0.321 0.835s-0.128 0.643-0.321 0.9c-0.257 0.257-0.578 0.386-0.964 0.514v0.707z"></path>
        </symbol>
        <symbol id="icon-dif-3" viewBox="0 0 32 32">
            <path fill="#a4a770" style="fill: var(--color1, #a4a770)" d="M9.767 12.98c-1.671 0-3.084-1.349-3.084-3.084s1.349-3.084 3.084-3.084 3.084 1.349 3.084 3.084-1.349 3.084-3.084 3.084zM9.767 7.839c-1.157 0-2.12 0.964-2.12 2.12s0.964 2.12 2.12 2.12 2.12-0.964 2.12-2.12-0.964-2.12-2.12-2.12z"></path>
            <path fill="#a4a770" style="fill: var(--color1, #a4a770)" d="M21.783 21.847v0c-0.128 0-0.257-0.064-0.321-0.128l-2.827-2.892c-0.193-0.193-0.193-0.514 0-0.707l1.735-1.735c0.193-0.193 0.514-0.193 0.707 0l0.771 0.771 3.727-3.727c0.193-0.193 0.514-0.193 0.707 0l1.735 1.735c0.064 0.064 0.128 0.193 0.128 0.321s-0.064 0.257-0.128 0.321l-5.847 5.847c-0.128 0.128-0.257 0.193-0.386 0.193zM19.598 18.506l2.185 2.185 5.141-5.141-1.092-1.092-3.727 3.727c-0.193 0.193-0.514 0.193-0.707 0l-0.771-0.771-1.028 1.092z"></path>
            <path fill="#a4a770" style="fill: var(--color1, #a4a770)" d="M20.819 13.88c-0.193 0-0.386-0.129-0.45-0.321-0.064-0.257 0.064-0.514 0.321-0.578 0.321-0.129 0.578-0.193 0.771-0.321 0.257-0.129 0.514 0 0.643 0.193 0.128 0.257 0 0.514-0.193 0.643-0.257 0.129-0.578 0.257-0.9 0.386-0.064 0-0.128 0-0.193 0z"></path>
            <path fill="#a4a770" style="fill: var(--color1, #a4a770)" d="M18.249 16.321c-0.257 0-0.514-0.193-0.514-0.514v-1.863c0-0.257 0.193-0.45 0.386-0.45 0 0 0.643-0.064 1.478-0.257 0.257-0.064 0.514 0.129 0.578 0.386s-0.064 0.514-0.321 0.514c-0.45 0.129-0.835 0.193-1.092 0.257v1.478c-0.064 0.257-0.257 0.45-0.514 0.45z"></path>
            <path fill="#a4a770" style="fill: var(--color1, #a4a770)" d="M31.614 9.896c0-0.129-0.064-0.257-0.128-0.386-0.128-0.064-0.257-0.129-0.386-0.129-0.064 0-5.012 0.514-8.161-1.671-0.193-0.128-0.386-0.128-0.578 0-0.835 0.578-1.928 1.028-3.213 1.349 0-0.321-0.064-0.643-0.128-1.028-0.064-0.193-0.193-0.321-0.386-0.321l-1.285-0.257c-0.128-0.386-0.257-0.707-0.45-1.028l0.771-1.092c0.128-0.128 0.128-0.386 0-0.514-0.707-1.028-1.606-1.928-2.635-2.635-0.129-0.128-0.386-0.128-0.514 0l-1.092 0.707c-0.321-0.128-0.643-0.321-1.028-0.45l-0.257-1.285c-0.064-0.193-0.193-0.321-0.386-0.386-1.221-0.257-2.506-0.257-3.791 0-0.193 0.064-0.321 0.193-0.386 0.386l-0.257 1.285c-0.386 0.128-0.707 0.257-1.092 0.386l-1.092-0.707c-0.128-0.129-0.386-0.129-0.514 0-1.028 0.707-1.928 1.606-2.635 2.635-0.129 0.193-0.129 0.386 0 0.514l0.707 1.157c-0.128 0.321-0.321 0.643-0.386 1.028l-1.285 0.257c-0.257 0-0.386 0.128-0.45 0.321-0.129 0.643-0.193 1.221-0.193 1.863s0.064 1.285 0.193 1.863c0.064 0.257 0.193 0.386 0.386 0.45l1.285 0.257c0.128 0.321 0.321 0.707 0.45 1.028l-0.707 1.092c-0.129 0.129-0.129 0.386 0 0.514 0.707 1.092 1.606 1.928 2.635 2.635 0.128 0.128 0.386 0.128 0.514 0l1.092-0.707c0.321 0.128 0.643 0.321 1.028 0.386l0.257 1.285c0.064 0.193 0.193 0.321 0.386 0.386 0.643 0.128 1.221 0.193 1.863 0.193s1.285-0.064 1.863-0.193c0.193-0.064 0.321-0.193 0.386-0.386l0.257-1.285c0.321-0.128 0.707-0.257 1.028-0.386l0.386 0.257c0.193 2.12 1.028 4.112 2.506 5.912l-1.671 5.59c-0.064 0.193 0 0.321 0.129 0.45s0.321 0.193 0.45 0.128l1.928-0.578 1.285 2.378c0.064 0.128 0.257 0.257 0.45 0.257 0 0 0 0 0.064 0 0.193 0 0.386-0.128 0.386-0.321l1.414-4.305c1.028 0.578 1.799 0.835 1.799 0.9 0.064 0 0.128 0 0.193 0s0.128 0 0.193 0c0.064 0 0.771-0.321 1.799-0.9l1.414 4.305c0.064 0.193 0.193 0.321 0.386 0.321 0 0 0.064 0 0.064 0 0.193 0 0.321-0.128 0.45-0.257l1.285-2.378 1.928 0.578c0.193 0.064 0.321 0 0.45-0.128s0.193-0.321 0.128-0.45l-1.671-5.59c1.735-2.056 2.57-4.434 2.57-7.004v-6.297zM13.623 16.064v0c-0.193-0.129-0.386-0.129-0.514-0.064-0.386 0.257-0.835 0.45-1.349 0.578-0.193 0.064-0.321 0.193-0.321 0.386l-0.257 1.285c-0.9 0.128-1.863 0.128-2.763 0l-0.257-1.285c0-0.193-0.193-0.321-0.321-0.386-0.514-0.128-0.964-0.321-1.349-0.578-0.128-0.064-0.321-0.064-0.514 0l-1.092 0.707c-0.771-0.514-1.414-1.221-1.928-1.928l0.707-1.092c0.128-0.129 0.128-0.321 0-0.514-0.257-0.386-0.45-0.835-0.578-1.349-0.064-0.193-0.193-0.321-0.386-0.321l-1.285-0.257c-0.064-0.45-0.129-0.9-0.129-1.349s0.064-0.9 0.129-1.349l1.285-0.257c0.193-0.064 0.321-0.193 0.386-0.321 0.128-0.514 0.321-0.9 0.578-1.349 0.064-0.128 0.064-0.321 0-0.514l-0.707-1.092c0.578-0.771 1.221-1.414 1.928-1.928l1.092 0.707c0.128 0.064 0.321 0.128 0.514 0 0.45-0.257 0.9-0.45 1.349-0.578 0.193-0.064 0.321-0.193 0.321-0.386l0.257-1.285c0.9-0.129 1.863-0.129 2.763 0l0.257 1.285c0 0.257 0.129 0.386 0.321 0.45 0.514 0.128 0.964 0.321 1.349 0.578 0.129 0.064 0.321 0.064 0.514 0l1.092-0.707c0.771 0.514 1.414 1.221 1.928 1.928l-0.707 1.092c-0.129 0.128-0.129 0.321 0 0.514 0.257 0.386 0.386 0.835 0.578 1.349 0.064 0.193 0.193 0.321 0.386 0.321l1.285 0.257c0.064 0.257 0.064 0.514 0.064 0.707-0.578 0.064-1.092 0.129-1.542 0.193-0.257 0-0.45 0-0.707 0-0.064 0-0.193 0-0.257 0-0.257-3.084-2.763-5.462-5.912-5.462-3.277 0-5.912 2.635-5.912 5.912s2.635 5.912 5.912 5.912c1.414 0 2.763-0.514 3.855-1.414v1.606zM13.815 9.51c-0.129 0.129-0.129 0.257-0.129 0.386v3.213c-0.964 1.157-2.377 1.863-3.855 1.863-2.763 0-4.948-2.249-4.948-4.948s2.249-4.948 4.948-4.948c2.57 0 4.691 1.992 4.948 4.498-0.321 0-0.578-0.064-0.578-0.064-0.129-0.129-0.321-0.064-0.386 0zM18.699 29.751l-0.964-1.735c-0.064-0.128-0.257-0.257-0.45-0.257-0.064 0-0.064 0-0.128 0l-1.414 0.45 1.221-4.177c0 0 0 0 0 0 0.193 0.193 0.386 0.386 0.643 0.578 0 0 0 0 0 0 0.193 0.193 0.45 0.386 0.707 0.578 0.193 0.193 0.45 0.321 0.643 0.514 0.193 0.128 0.45 0.321 0.643 0.45 0.064 0.064 0.128 0.064 0.193 0.128l-1.092 3.47zM29.494 28.209l-1.414-0.45c-0.193-0.064-0.45 0.064-0.578 0.257l-0.964 1.735-1.092-3.47c0.257-0.128 0.514-0.321 0.707-0.514 0 0 0.064 0 0.064-0.064 0.193-0.128 0.386-0.321 0.643-0.45 0.128-0.128 0.321-0.257 0.45-0.386 0.257-0.193 0.514-0.45 0.707-0.643 0.064-0.064 0.193-0.193 0.257-0.257l1.221 4.241zM30.651 16.128c0 2.442-0.835 4.627-2.442 6.554 0 0-0.064 0.064-0.064 0.064-0.9 1.092-2.12 2.056-3.534 2.956-0.9 0.578-1.671 0.9-1.992 1.028-0.321-0.128-1.028-0.45-1.928-1.028 0 0-0.064 0-0.064-0.064-1.414-0.835-2.57-1.799-3.534-2.956-1.478-1.735-2.313-3.663-2.506-5.783 0-0.257 0-0.514 0-0.771v-5.719c0.193 0 0.386 0 0.643 0v0c0.835 0 2.185 0 3.534-0.257 1.478-0.257 2.763-0.771 3.855-1.414 2.827 1.799 6.618 1.799 8.032 1.671v5.719z"></path>
            <path fill="#a4a770" style="fill: var(--color1, #a4a770)" d="M22.618 25.446c-0.064 0-0.128 0-0.193-0.064-1.992-0.964-6.683-3.791-6.683-9.189v-4.112c0-0.257 0.193-0.45 0.45-0.514 0.257 0 0.514 0 0.771-0.064 2.12-0.129 3.92-0.643 5.398-1.349 0.128-0.064 0.321-0.064 0.45 0 1.671 0.835 3.791 1.349 6.169 1.414 0.257 0 0.45 0.193 0.45 0.45v4.112c0 5.398-4.627 8.225-6.683 9.189 0 0.064-0.064 0.128-0.128 0.128zM16.707 12.53v3.663c0 4.691 3.984 7.261 5.912 8.225 1.928-0.964 5.912-3.598 5.912-8.225v-3.663c-2.249-0.129-4.241-0.578-5.912-1.414-1.542 0.771-3.406 1.221-5.526 1.349-0.128 0.064-0.257 0.064-0.386 0.064z"></path>
        </symbol>
        <symbol id="icon-swipe" viewBox="0 0 16 32">
            <path d="M0 16l15-15.588v31.177l-15-15.588z"></path>
        </symbol>
        <symbol id="icon-close" viewBox="0 0 32 32">
            <path  d="M4.795 26.232l21.436-21.436 1.739 1.739-21.436 21.437-1.739-1.739z"></path>
            <path  d="M6.537 4.795l21.436 21.436-1.739 1.739-21.436-21.436 1.739-1.739z"></path>
        </symbol>
        <symbol id="icon-menu" viewBox="0 0 32 32">
            <path d="M6.4 11.734v-2.134h19.2v2.134h-19.2zM6.4 17.066h19.2v-2.133h-19.2v2.133zM6.4 22.4h19.2v-2.134h-19.2v2.134z"></path>
        </symbol>
        <symbol id="icon-menu-close" viewBox="0 0 32 32">
            <path d="M23.734 10.304l-1.504-1.504-5.963 5.962-5.962-5.962-1.504 1.504 5.962 5.962-5.962 5.963 1.504 1.504 5.962-5.963 5.963 5.963 1.504-1.504-5.963-5.963 5.963-5.962z"></path>
        </symbol>
    </defs>

</svg>
